<svg width="59" height="22" viewBox="0 0 59 22" fill="none" xmlns="http://www.w3.org/2000/svg">
<path d="M7.11068 21.4003C3.60747 21.4003 1.14378 19.4842 0.97934 16.7474H3.55313C3.68968 18.198 4.97586 19.2926 7.08351 19.2926C9.05461 19.2926 10.1492 18.3074 10.1492 17.0763C10.1492 13.7368 1.28391 15.68 1.28391 10.0963C1.28391 7.79704 3.44589 5.90887 6.78896 5.90887C10.1006 5.90887 12.2904 7.68765 12.4549 10.6161H9.95329C9.8439 9.11468 8.69428 8.01653 6.69601 8.01653C4.86219 8.01653 3.76475 8.89233 3.76475 10.0963C3.76475 13.6546 12.4684 11.7114 12.5778 17.0763C12.5807 19.5393 10.4187 21.4003 7.11068 21.4003Z" fill="#3E4047"/>
<path d="M21.8585 21.4004C17.5889 21.4004 14.441 18.3897 14.441 13.6275C14.441 8.89244 17.4795 5.90613 21.8585 5.90613C26.2104 5.90613 29.0573 8.97108 29.0573 13.077C29.0583 13.5817 29.0309 14.0861 28.9751 14.5877H17.2629C17.2278 14.5874 17.1931 14.5945 17.161 14.6085C17.1289 14.6225 17.1 14.643 17.0763 14.6688C17.0526 14.6946 17.0346 14.7251 17.0234 14.7582C17.0122 14.7914 17.008 14.8266 17.0112 14.8615C17.3101 17.7255 19.392 19.2941 21.86 19.2941C24.1042 19.2941 25.5276 18.1452 26.0781 16.5302H28.7606C27.987 19.2655 25.5813 21.4004 21.8585 21.4004ZM17.2979 12.5601H26.2283C26.2619 12.5603 26.2952 12.5538 26.3262 12.5409C26.3572 12.528 26.3854 12.5091 26.409 12.4851C26.4325 12.4612 26.4511 12.4328 26.4635 12.4016C26.476 12.3704 26.482 12.337 26.4814 12.3034C26.382 9.53732 24.2457 8.01378 21.7491 8.01378C19.3948 8.01378 17.4244 9.52159 17.0477 12.2655C17.0419 12.3018 17.044 12.3389 17.0539 12.3742C17.0638 12.4096 17.0813 12.4424 17.105 12.4704C17.1288 12.4983 17.1584 12.5209 17.1916 12.5363C17.2249 12.5518 17.2612 12.5599 17.2979 12.5601Z" fill="#3E4047"/>
<path d="M31.5469 0.900024H34.0377V21.1543H31.5469V0.900024Z" fill="#3E4047"/>
<path d="M37.2942 2.36205C37.2907 2.13829 37.3322 1.91612 37.4162 1.70871C37.5002 1.50131 37.6251 1.31289 37.7833 1.15466C37.9415 0.996418 38.13 0.87158 38.3374 0.78755C38.5448 0.70352 38.7669 0.66201 38.9907 0.665485C39.8936 0.665485 40.635 1.40474 40.635 2.36205C40.635 3.31936 39.8958 4.05932 38.9907 4.05932C38.7669 4.0628 38.5446 4.02127 38.3372 3.93719C38.1297 3.85312 37.9413 3.72822 37.7831 3.5699C37.6248 3.41159 37.5 3.22309 37.416 3.0156C37.332 2.80811 37.2906 2.58586 37.2942 2.36205Z" fill="#3E4047"/>
<path d="M40.1957 6.15558H37.7049V21.1544H40.1957V6.15558Z" fill="#3E4047"/>
<path d="M50.2401 5.90887C52.6244 5.90887 54.3696 6.94697 55.3741 8.22172C55.4064 8.26296 55.4508 8.29307 55.5011 8.30786C55.5514 8.32265 55.605 8.32138 55.6545 8.30421C55.704 8.28705 55.747 8.25486 55.7773 8.21213C55.8076 8.1694 55.8239 8.11826 55.8238 8.06586V6.15553H58.3418V21.1543H55.8238V19.1947C55.8241 19.1421 55.8079 19.0907 55.7775 19.0478C55.7472 19.0049 55.7041 18.9725 55.6544 18.9553C55.6047 18.9381 55.5509 18.9369 55.5005 18.9519C55.4501 18.9669 55.4056 18.9973 55.3734 19.0388C54.3481 20.355 52.5851 21.3981 50.2129 21.3981C46.2164 21.3981 43.1235 18.2524 43.1235 13.5981C43.1235 8.9195 46.2185 5.90887 50.2401 5.90887ZM50.7327 8.07086C47.9959 8.07086 45.6687 10.0727 45.6687 13.6002C45.6687 17.1278 47.9959 19.2111 50.7327 19.2111C53.4695 19.2111 55.8238 17.1578 55.8238 13.6274C55.8238 10.1549 53.4695 8.07086 50.7327 8.07086Z" fill="#3E4047"/>
</svg>
